<mxfile host="app.diagrams.net" agent="Mozilla/5.0 (Windows NT 10.0; Win64; x64; rv:141.0) Gecko/20100101 Firefox/141.0" version="28.1.0">
  <diagram name="Page-1" id="2YBvvXClWsGukQMizWep">
    <mxGraphModel dx="2066" dy="1111" grid="1" gridSize="10" guides="1" tooltips="1" connect="1" arrows="1" fold="1" page="1" pageScale="1" pageWidth="1169" pageHeight="1654" math="0" shadow="0">
      <root>
        <mxCell id="0" />
        <mxCell id="1" parent="0" />
        <mxCell id="vmTITbc66Wykd20N-qv6-163" value="User B" style="shape=umlLifeline;perimeter=lifelinePerimeter;whiteSpace=wrap;container=1;dropTarget=0;collapsible=0;recursiveResize=0;outlineConnect=0;portConstraint=eastwest;newEdgeStyle={&quot;edgeStyle&quot;:&quot;elbowEdgeStyle&quot;,&quot;elbow&quot;:&quot;vertical&quot;,&quot;curved&quot;:0,&quot;rounded&quot;:0};size=65;" parent="1" vertex="1">
          <mxGeometry x="20" y="20" width="150" height="1716" as="geometry" />
        </mxCell>
        <mxCell id="vmTITbc66Wykd20N-qv6-164" value="" style="points=[];perimeter=orthogonalPerimeter;outlineConnect=0;targetShapes=umlLifeline;portConstraint=eastwest;newEdgeStyle={&quot;edgeStyle&quot;:&quot;elbowEdgeStyle&quot;,&quot;elbow&quot;:&quot;vertical&quot;,&quot;curved&quot;:0,&quot;rounded&quot;:0}" parent="vmTITbc66Wykd20N-qv6-163" vertex="1">
          <mxGeometry x="70" y="523" width="10" height="270" as="geometry" />
        </mxCell>
        <mxCell id="vmTITbc66Wykd20N-qv6-165" value="" style="points=[];perimeter=orthogonalPerimeter;outlineConnect=0;targetShapes=umlLifeline;portConstraint=eastwest;newEdgeStyle={&quot;edgeStyle&quot;:&quot;elbowEdgeStyle&quot;,&quot;elbow&quot;:&quot;vertical&quot;,&quot;curved&quot;:0,&quot;rounded&quot;:0}" parent="vmTITbc66Wykd20N-qv6-163" vertex="1">
          <mxGeometry x="70" y="1490" width="10" height="121" as="geometry" />
        </mxCell>
        <mxCell id="vmTITbc66Wykd20N-qv6-166" value="User A" style="shape=umlLifeline;perimeter=lifelinePerimeter;whiteSpace=wrap;container=1;dropTarget=0;collapsible=0;recursiveResize=0;outlineConnect=0;portConstraint=eastwest;newEdgeStyle={&quot;edgeStyle&quot;:&quot;elbowEdgeStyle&quot;,&quot;elbow&quot;:&quot;vertical&quot;,&quot;curved&quot;:0,&quot;rounded&quot;:0};size=65;" parent="1" vertex="1">
          <mxGeometry x="220" y="20" width="150" height="1716" as="geometry" />
        </mxCell>
        <mxCell id="vmTITbc66Wykd20N-qv6-167" value="" style="points=[];perimeter=orthogonalPerimeter;outlineConnect=0;targetShapes=umlLifeline;portConstraint=eastwest;newEdgeStyle={&quot;edgeStyle&quot;:&quot;elbowEdgeStyle&quot;,&quot;elbow&quot;:&quot;vertical&quot;,&quot;curved&quot;:0,&quot;rounded&quot;:0}" parent="vmTITbc66Wykd20N-qv6-166" vertex="1">
          <mxGeometry x="70" y="107" width="10" height="270" as="geometry" />
        </mxCell>
        <mxCell id="vmTITbc66Wykd20N-qv6-168" value="" style="points=[];perimeter=orthogonalPerimeter;outlineConnect=0;targetShapes=umlLifeline;portConstraint=eastwest;newEdgeStyle={&quot;edgeStyle&quot;:&quot;elbowEdgeStyle&quot;,&quot;elbow&quot;:&quot;vertical&quot;,&quot;curved&quot;:0,&quot;rounded&quot;:0}" parent="vmTITbc66Wykd20N-qv6-166" vertex="1">
          <mxGeometry x="70" y="419" width="10" height="62" as="geometry" />
        </mxCell>
        <mxCell id="vmTITbc66Wykd20N-qv6-169" value="" style="points=[];perimeter=orthogonalPerimeter;outlineConnect=0;targetShapes=umlLifeline;portConstraint=eastwest;newEdgeStyle={&quot;edgeStyle&quot;:&quot;elbowEdgeStyle&quot;,&quot;elbow&quot;:&quot;vertical&quot;,&quot;curved&quot;:0,&quot;rounded&quot;:0}" parent="vmTITbc66Wykd20N-qv6-166" vertex="1">
          <mxGeometry x="70" y="835" width="10" height="460" as="geometry" />
        </mxCell>
        <mxCell id="vmTITbc66Wykd20N-qv6-170" value="App view" style="shape=umlLifeline;perimeter=lifelinePerimeter;whiteSpace=wrap;container=1;dropTarget=0;collapsible=0;recursiveResize=0;outlineConnect=0;portConstraint=eastwest;newEdgeStyle={&quot;edgeStyle&quot;:&quot;elbowEdgeStyle&quot;,&quot;elbow&quot;:&quot;vertical&quot;,&quot;curved&quot;:0,&quot;rounded&quot;:0};size=65;" parent="1" vertex="1">
          <mxGeometry x="534" y="20" width="150" height="1716" as="geometry" />
        </mxCell>
        <mxCell id="vmTITbc66Wykd20N-qv6-171" value="" style="points=[];perimeter=orthogonalPerimeter;outlineConnect=0;targetShapes=umlLifeline;portConstraint=eastwest;newEdgeStyle={&quot;edgeStyle&quot;:&quot;elbowEdgeStyle&quot;,&quot;elbow&quot;:&quot;vertical&quot;,&quot;curved&quot;:0,&quot;rounded&quot;:0}" parent="vmTITbc66Wykd20N-qv6-170" vertex="1">
          <mxGeometry x="70" y="107" width="10" height="270" as="geometry" />
        </mxCell>
        <mxCell id="vmTITbc66Wykd20N-qv6-172" value="" style="points=[];perimeter=orthogonalPerimeter;outlineConnect=0;targetShapes=umlLifeline;portConstraint=eastwest;newEdgeStyle={&quot;edgeStyle&quot;:&quot;elbowEdgeStyle&quot;,&quot;elbow&quot;:&quot;vertical&quot;,&quot;curved&quot;:0,&quot;rounded&quot;:0}" parent="vmTITbc66Wykd20N-qv6-170" vertex="1">
          <mxGeometry x="70" y="419" width="10" height="62" as="geometry" />
        </mxCell>
        <mxCell id="vmTITbc66Wykd20N-qv6-173" value="" style="points=[];perimeter=orthogonalPerimeter;outlineConnect=0;targetShapes=umlLifeline;portConstraint=eastwest;newEdgeStyle={&quot;edgeStyle&quot;:&quot;elbowEdgeStyle&quot;,&quot;elbow&quot;:&quot;vertical&quot;,&quot;curved&quot;:0,&quot;rounded&quot;:0}" parent="vmTITbc66Wykd20N-qv6-170" vertex="1">
          <mxGeometry x="70" y="523" width="10" height="270" as="geometry" />
        </mxCell>
        <mxCell id="vmTITbc66Wykd20N-qv6-174" value="" style="points=[];perimeter=orthogonalPerimeter;outlineConnect=0;targetShapes=umlLifeline;portConstraint=eastwest;newEdgeStyle={&quot;edgeStyle&quot;:&quot;elbowEdgeStyle&quot;,&quot;elbow&quot;:&quot;vertical&quot;,&quot;curved&quot;:0,&quot;rounded&quot;:0}" parent="vmTITbc66Wykd20N-qv6-170" vertex="1">
          <mxGeometry x="70" y="835" width="10" height="465" as="geometry" />
        </mxCell>
        <mxCell id="vmTITbc66Wykd20N-qv6-175" value="" style="points=[];perimeter=orthogonalPerimeter;outlineConnect=0;targetShapes=umlLifeline;portConstraint=eastwest;newEdgeStyle={&quot;edgeStyle&quot;:&quot;elbowEdgeStyle&quot;,&quot;elbow&quot;:&quot;vertical&quot;,&quot;curved&quot;:0,&quot;rounded&quot;:0}" parent="vmTITbc66Wykd20N-qv6-170" vertex="1">
          <mxGeometry x="70" y="1430" width="10" height="77" as="geometry" />
        </mxCell>
        <mxCell id="vmTITbc66Wykd20N-qv6-176" value="" style="points=[];perimeter=orthogonalPerimeter;outlineConnect=0;targetShapes=umlLifeline;portConstraint=eastwest;newEdgeStyle={&quot;edgeStyle&quot;:&quot;elbowEdgeStyle&quot;,&quot;elbow&quot;:&quot;vertical&quot;,&quot;curved&quot;:0,&quot;rounded&quot;:0}" parent="vmTITbc66Wykd20N-qv6-170" vertex="1">
          <mxGeometry x="70" y="1549" width="10" height="52" as="geometry" />
        </mxCell>
        <mxCell id="vmTITbc66Wykd20N-qv6-177" value="Chat controller" style="shape=umlLifeline;perimeter=lifelinePerimeter;whiteSpace=wrap;container=1;dropTarget=0;collapsible=0;recursiveResize=0;outlineConnect=0;portConstraint=eastwest;newEdgeStyle={&quot;edgeStyle&quot;:&quot;elbowEdgeStyle&quot;,&quot;elbow&quot;:&quot;vertical&quot;,&quot;curved&quot;:0,&quot;rounded&quot;:0};size=65;" parent="1" vertex="1">
          <mxGeometry x="800" y="20" width="150" height="1716" as="geometry" />
        </mxCell>
        <mxCell id="vmTITbc66Wykd20N-qv6-178" value="" style="points=[];perimeter=orthogonalPerimeter;outlineConnect=0;targetShapes=umlLifeline;portConstraint=eastwest;newEdgeStyle={&quot;edgeStyle&quot;:&quot;elbowEdgeStyle&quot;,&quot;elbow&quot;:&quot;vertical&quot;,&quot;curved&quot;:0,&quot;rounded&quot;:0}" parent="vmTITbc66Wykd20N-qv6-177" vertex="1">
          <mxGeometry x="70" y="159" width="10" height="161" as="geometry" />
        </mxCell>
        <mxCell id="vmTITbc66Wykd20N-qv6-179" value="" style="points=[];perimeter=orthogonalPerimeter;outlineConnect=0;targetShapes=umlLifeline;portConstraint=eastwest;newEdgeStyle={&quot;edgeStyle&quot;:&quot;elbowEdgeStyle&quot;,&quot;elbow&quot;:&quot;vertical&quot;,&quot;curved&quot;:0,&quot;rounded&quot;:0}" parent="vmTITbc66Wykd20N-qv6-177" vertex="1">
          <mxGeometry x="70" y="575" width="10" height="146" as="geometry" />
        </mxCell>
        <mxCell id="vmTITbc66Wykd20N-qv6-180" value="" style="points=[];perimeter=orthogonalPerimeter;outlineConnect=0;targetShapes=umlLifeline;portConstraint=eastwest;newEdgeStyle={&quot;edgeStyle&quot;:&quot;elbowEdgeStyle&quot;,&quot;elbow&quot;:&quot;vertical&quot;,&quot;curved&quot;:0,&quot;rounded&quot;:0}" parent="vmTITbc66Wykd20N-qv6-177" vertex="1">
          <mxGeometry x="70" y="887" width="10" height="213" as="geometry" />
        </mxCell>
        <mxCell id="vmTITbc66Wykd20N-qv6-181" value="" style="points=[];perimeter=orthogonalPerimeter;outlineConnect=0;targetShapes=umlLifeline;portConstraint=eastwest;newEdgeStyle={&quot;edgeStyle&quot;:&quot;elbowEdgeStyle&quot;,&quot;elbow&quot;:&quot;vertical&quot;,&quot;curved&quot;:0,&quot;rounded&quot;:0}" parent="vmTITbc66Wykd20N-qv6-177" vertex="1">
          <mxGeometry x="70" y="1380" width="10" height="75" as="geometry" />
        </mxCell>
        <mxCell id="vmTITbc66Wykd20N-qv6-182" value="Firebase Realtime Database" style="shape=umlLifeline;perimeter=lifelinePerimeter;whiteSpace=wrap;container=1;dropTarget=0;collapsible=0;recursiveResize=0;outlineConnect=0;portConstraint=eastwest;newEdgeStyle={&quot;edgeStyle&quot;:&quot;elbowEdgeStyle&quot;,&quot;elbow&quot;:&quot;vertical&quot;,&quot;curved&quot;:0,&quot;rounded&quot;:0};size=65;" parent="1" vertex="1">
          <mxGeometry x="1035" y="20" width="213" height="1716" as="geometry" />
        </mxCell>
        <mxCell id="vmTITbc66Wykd20N-qv6-183" value="" style="points=[];perimeter=orthogonalPerimeter;outlineConnect=0;targetShapes=umlLifeline;portConstraint=eastwest;newEdgeStyle={&quot;edgeStyle&quot;:&quot;elbowEdgeStyle&quot;,&quot;elbow&quot;:&quot;vertical&quot;,&quot;curved&quot;:0,&quot;rounded&quot;:0}" parent="vmTITbc66Wykd20N-qv6-182" vertex="1">
          <mxGeometry x="101" y="211" width="10" height="59" as="geometry" />
        </mxCell>
        <mxCell id="vmTITbc66Wykd20N-qv6-184" value="" style="points=[];perimeter=orthogonalPerimeter;outlineConnect=0;targetShapes=umlLifeline;portConstraint=eastwest;newEdgeStyle={&quot;edgeStyle&quot;:&quot;elbowEdgeStyle&quot;,&quot;elbow&quot;:&quot;vertical&quot;,&quot;curved&quot;:0,&quot;rounded&quot;:0}" parent="vmTITbc66Wykd20N-qv6-182" vertex="1">
          <mxGeometry x="101" y="627" width="10" height="776" as="geometry" />
        </mxCell>
        <mxCell id="vmTITbc66Wykd20N-qv6-185" value="alt" style="shape=umlFrame;dashed=1;pointerEvents=0;dropTarget=0;strokeColor=#B3B3B3;height=20;width=30" parent="1" vertex="1">
          <mxGeometry x="280" y="1129" width="344" height="196" as="geometry" />
        </mxCell>
        <mxCell id="vmTITbc66Wykd20N-qv6-186" value="[success]" style="text;strokeColor=none;fillColor=none;align=center;verticalAlign=middle;whiteSpace=wrap;" parent="vmTITbc66Wykd20N-qv6-185" vertex="1">
          <mxGeometry x="30" width="314" height="20" as="geometry" />
        </mxCell>
        <mxCell id="vmTITbc66Wykd20N-qv6-187" value="[fail]" style="shape=line;dashed=1;whiteSpace=wrap;verticalAlign=top;labelPosition=center;verticalLabelPosition=middle;align=center;strokeColor=#B3B3B3;" parent="vmTITbc66Wykd20N-qv6-185" vertex="1">
          <mxGeometry y="103" width="344" height="4" as="geometry" />
        </mxCell>
        <mxCell id="vmTITbc66Wykd20N-qv6-188" value="par" style="shape=umlFrame;dashed=1;pointerEvents=0;dropTarget=0;strokeColor=#B3B3B3;height=20;width=30" parent="1" vertex="1">
          <mxGeometry x="80" y="979" width="1076" height="662" as="geometry" />
        </mxCell>
        <mxCell id="vmTITbc66Wykd20N-qv6-189" value="[User A]" style="text;strokeColor=none;fillColor=none;align=center;verticalAlign=middle;whiteSpace=wrap;" parent="vmTITbc66Wykd20N-qv6-188" vertex="1">
          <mxGeometry x="30" width="1046" height="20" as="geometry" />
        </mxCell>
        <mxCell id="vmTITbc66Wykd20N-qv6-190" value="[User B]" style="shape=line;dashed=1;whiteSpace=wrap;verticalAlign=top;labelPosition=center;verticalLabelPosition=middle;align=center;strokeColor=#B3B3B3;" parent="vmTITbc66Wykd20N-qv6-188" vertex="1">
          <mxGeometry y="361" width="1076" height="4" as="geometry" />
        </mxCell>
        <mxCell id="vmTITbc66Wykd20N-qv6-191" value="Open Chat page" style="verticalAlign=bottom;edgeStyle=elbowEdgeStyle;elbow=vertical;curved=0;rounded=0;endArrow=block;" parent="1" source="vmTITbc66Wykd20N-qv6-167" target="vmTITbc66Wykd20N-qv6-171" edge="1">
          <mxGeometry relative="1" as="geometry">
            <Array as="points">
              <mxPoint x="459" y="127" />
            </Array>
          </mxGeometry>
        </mxCell>
        <mxCell id="vmTITbc66Wykd20N-qv6-192" value="Get chat information" style="verticalAlign=bottom;edgeStyle=elbowEdgeStyle;elbow=vertical;curved=0;rounded=0;endArrow=block;" parent="1" source="vmTITbc66Wykd20N-qv6-171" target="vmTITbc66Wykd20N-qv6-178" edge="1">
          <mxGeometry relative="1" as="geometry">
            <Array as="points">
              <mxPoint x="751" y="179" />
            </Array>
          </mxGeometry>
        </mxCell>
        <mxCell id="vmTITbc66Wykd20N-qv6-193" value="Get message since last read" style="verticalAlign=bottom;edgeStyle=elbowEdgeStyle;elbow=vertical;curved=0;rounded=0;endArrow=block;" parent="1" source="vmTITbc66Wykd20N-qv6-178" target="vmTITbc66Wykd20N-qv6-183" edge="1">
          <mxGeometry relative="1" as="geometry">
            <Array as="points">
              <mxPoint x="1017" y="231" />
            </Array>
          </mxGeometry>
        </mxCell>
        <mxCell id="vmTITbc66Wykd20N-qv6-194" value="Message since last read" style="verticalAlign=bottom;edgeStyle=elbowEdgeStyle;elbow=vertical;curved=0;rounded=0;dashed=1;dashPattern=2 3;endArrow=block;" parent="1" source="vmTITbc66Wykd20N-qv6-182" target="vmTITbc66Wykd20N-qv6-178" edge="1">
          <mxGeometry relative="1" as="geometry">
            <Array as="points">
              <mxPoint x="1020" y="283" />
            </Array>
          </mxGeometry>
        </mxCell>
        <mxCell id="vmTITbc66Wykd20N-qv6-195" value="List of previous message" style="verticalAlign=bottom;edgeStyle=elbowEdgeStyle;elbow=vertical;curved=0;rounded=0;dashed=1;dashPattern=2 3;endArrow=block;" parent="1" source="vmTITbc66Wykd20N-qv6-177" target="vmTITbc66Wykd20N-qv6-171" edge="1">
          <mxGeometry relative="1" as="geometry">
            <Array as="points">
              <mxPoint x="754" y="335" />
            </Array>
          </mxGeometry>
        </mxCell>
        <mxCell id="vmTITbc66Wykd20N-qv6-196" value="Show Chat page" style="verticalAlign=bottom;edgeStyle=elbowEdgeStyle;elbow=vertical;curved=0;rounded=0;dashed=1;dashPattern=2 3;endArrow=block;" parent="1" source="vmTITbc66Wykd20N-qv6-171" target="vmTITbc66Wykd20N-qv6-167" edge="1">
          <mxGeometry relative="1" as="geometry">
            <Array as="points">
              <mxPoint x="464" y="387" />
            </Array>
          </mxGeometry>
        </mxCell>
        <mxCell id="vmTITbc66Wykd20N-qv6-197" value="Select a chat" style="verticalAlign=bottom;edgeStyle=elbowEdgeStyle;elbow=vertical;curved=0;rounded=0;endArrow=block;" parent="1" source="vmTITbc66Wykd20N-qv6-168" target="vmTITbc66Wykd20N-qv6-172" edge="1">
          <mxGeometry relative="1" as="geometry">
            <Array as="points">
              <mxPoint x="459" y="439" />
            </Array>
          </mxGeometry>
        </mxCell>
        <mxCell id="vmTITbc66Wykd20N-qv6-198" value="Show chat message" style="verticalAlign=bottom;edgeStyle=elbowEdgeStyle;elbow=vertical;curved=0;rounded=0;dashed=1;dashPattern=2 3;endArrow=block;" parent="1" source="vmTITbc66Wykd20N-qv6-172" target="vmTITbc66Wykd20N-qv6-168" edge="1">
          <mxGeometry relative="1" as="geometry">
            <Array as="points">
              <mxPoint x="464" y="491" />
            </Array>
          </mxGeometry>
        </mxCell>
        <mxCell id="vmTITbc66Wykd20N-qv6-199" value="Open the app" style="verticalAlign=bottom;edgeStyle=elbowEdgeStyle;elbow=vertical;curved=0;rounded=0;endArrow=block;" parent="1" source="vmTITbc66Wykd20N-qv6-164" target="vmTITbc66Wykd20N-qv6-173" edge="1">
          <mxGeometry relative="1" as="geometry">
            <Array as="points">
              <mxPoint x="359" y="543" />
            </Array>
          </mxGeometry>
        </mxCell>
        <mxCell id="vmTITbc66Wykd20N-qv6-200" value="Initialize chat controller" style="verticalAlign=bottom;edgeStyle=elbowEdgeStyle;elbow=vertical;curved=0;rounded=0;endArrow=block;" parent="1" source="vmTITbc66Wykd20N-qv6-173" target="vmTITbc66Wykd20N-qv6-179" edge="1">
          <mxGeometry relative="1" as="geometry">
            <Array as="points">
              <mxPoint x="751" y="595" />
            </Array>
          </mxGeometry>
        </mxCell>
        <mxCell id="vmTITbc66Wykd20N-qv6-201" value="Initialize callback" style="verticalAlign=bottom;edgeStyle=elbowEdgeStyle;elbow=vertical;curved=0;rounded=0;endArrow=block;" parent="1" source="vmTITbc66Wykd20N-qv6-179" target="vmTITbc66Wykd20N-qv6-184" edge="1">
          <mxGeometry relative="1" as="geometry">
            <Array as="points">
              <mxPoint x="1017" y="647" />
            </Array>
          </mxGeometry>
        </mxCell>
        <mxCell id="vmTITbc66Wykd20N-qv6-202" value="Return status code" style="verticalAlign=bottom;edgeStyle=elbowEdgeStyle;elbow=vertical;curved=0;rounded=0;dashed=1;dashPattern=2 3;endArrow=block;" parent="1" source="vmTITbc66Wykd20N-qv6-184" target="vmTITbc66Wykd20N-qv6-179" edge="1">
          <mxGeometry relative="1" as="geometry">
            <Array as="points">
              <mxPoint x="1020" y="699" />
            </Array>
          </mxGeometry>
        </mxCell>
        <mxCell id="vmTITbc66Wykd20N-qv6-203" value="Return status code" style="verticalAlign=bottom;edgeStyle=elbowEdgeStyle;elbow=vertical;curved=0;rounded=0;dashed=1;dashPattern=2 3;endArrow=block;" parent="1" source="vmTITbc66Wykd20N-qv6-177" target="vmTITbc66Wykd20N-qv6-173" edge="1">
          <mxGeometry relative="1" as="geometry">
            <Array as="points">
              <mxPoint x="754" y="751" />
            </Array>
          </mxGeometry>
        </mxCell>
        <mxCell id="vmTITbc66Wykd20N-qv6-204" value="Show App page" style="verticalAlign=bottom;edgeStyle=elbowEdgeStyle;elbow=vertical;curved=0;rounded=0;dashed=1;dashPattern=2 3;endArrow=block;" parent="1" source="vmTITbc66Wykd20N-qv6-173" target="vmTITbc66Wykd20N-qv6-164" edge="1">
          <mxGeometry relative="1" as="geometry">
            <Array as="points">
              <mxPoint x="364" y="803" />
            </Array>
          </mxGeometry>
        </mxCell>
        <mxCell id="vmTITbc66Wykd20N-qv6-205" value="Send a message" style="verticalAlign=bottom;edgeStyle=elbowEdgeStyle;elbow=vertical;curved=0;rounded=0;endArrow=block;" parent="1" source="vmTITbc66Wykd20N-qv6-169" target="vmTITbc66Wykd20N-qv6-174" edge="1">
          <mxGeometry relative="1" as="geometry">
            <Array as="points">
              <mxPoint x="461" y="855" />
            </Array>
          </mxGeometry>
        </mxCell>
        <mxCell id="vmTITbc66Wykd20N-qv6-206" value="Send a message" style="verticalAlign=bottom;edgeStyle=elbowEdgeStyle;elbow=vertical;curved=0;rounded=0;endArrow=block;" parent="1" source="vmTITbc66Wykd20N-qv6-174" target="vmTITbc66Wykd20N-qv6-180" edge="1">
          <mxGeometry relative="1" as="geometry">
            <Array as="points">
              <mxPoint x="751" y="907" />
            </Array>
          </mxGeometry>
        </mxCell>
        <mxCell id="vmTITbc66Wykd20N-qv6-207" value="Create a new message" style="verticalAlign=bottom;edgeStyle=elbowEdgeStyle;elbow=vertical;curved=0;rounded=0;endArrow=block;" parent="1" source="vmTITbc66Wykd20N-qv6-180" target="vmTITbc66Wykd20N-qv6-184" edge="1">
          <mxGeometry relative="1" as="geometry">
            <Array as="points">
              <mxPoint x="1017" y="959" />
            </Array>
          </mxGeometry>
        </mxCell>
        <mxCell id="vmTITbc66Wykd20N-qv6-208" value="Return result code" style="verticalAlign=bottom;edgeStyle=elbowEdgeStyle;elbow=vertical;curved=0;rounded=0;dashed=1;dashPattern=2 3;endArrow=block;" parent="1" source="vmTITbc66Wykd20N-qv6-184" target="vmTITbc66Wykd20N-qv6-180" edge="1">
          <mxGeometry relative="1" as="geometry">
            <Array as="points">
              <mxPoint x="1020" y="1057" />
            </Array>
          </mxGeometry>
        </mxCell>
        <mxCell id="vmTITbc66Wykd20N-qv6-209" value="Return result code" style="verticalAlign=bottom;edgeStyle=elbowEdgeStyle;elbow=vertical;curved=0;rounded=0;dashed=1;dashPattern=2 3;endArrow=block;" parent="1" source="vmTITbc66Wykd20N-qv6-177" target="vmTITbc66Wykd20N-qv6-174" edge="1">
          <mxGeometry relative="1" as="geometry">
            <Array as="points">
              <mxPoint x="754" y="1109" />
            </Array>
          </mxGeometry>
        </mxCell>
        <mxCell id="vmTITbc66Wykd20N-qv6-210" value="Show green tick for success" style="verticalAlign=bottom;edgeStyle=elbowEdgeStyle;elbow=vertical;curved=0;rounded=0;dashed=1;dashPattern=2 3;endArrow=block;" parent="1" source="vmTITbc66Wykd20N-qv6-174" target="vmTITbc66Wykd20N-qv6-169" edge="1">
          <mxGeometry relative="1" as="geometry">
            <Array as="points">
              <mxPoint x="464" y="1207" />
            </Array>
          </mxGeometry>
        </mxCell>
        <mxCell id="vmTITbc66Wykd20N-qv6-211" value="Show red exclamation mark for fail" style="verticalAlign=bottom;edgeStyle=elbowEdgeStyle;elbow=vertical;curved=0;rounded=0;dashed=1;dashPattern=2 3;endArrow=block;" parent="1" source="vmTITbc66Wykd20N-qv6-170" target="vmTITbc66Wykd20N-qv6-169" edge="1">
          <mxGeometry relative="1" as="geometry">
            <Array as="points">
              <mxPoint x="464" y="1305" />
            </Array>
          </mxGeometry>
        </mxCell>
        <mxCell id="vmTITbc66Wykd20N-qv6-212" value="Push the message to User B" style="verticalAlign=bottom;edgeStyle=elbowEdgeStyle;elbow=vertical;curved=0;rounded=0;dashed=1;dashPattern=2 3;endArrow=block;" parent="1" source="vmTITbc66Wykd20N-qv6-184" target="vmTITbc66Wykd20N-qv6-181" edge="1">
          <mxGeometry relative="1" as="geometry">
            <Array as="points">
              <mxPoint x="1020" y="1413" />
            </Array>
          </mxGeometry>
        </mxCell>
        <mxCell id="vmTITbc66Wykd20N-qv6-213" value="Push the message to User B" style="verticalAlign=bottom;edgeStyle=elbowEdgeStyle;elbow=vertical;curved=0;rounded=0;dashed=1;dashPattern=2 3;endArrow=block;" parent="1" source="vmTITbc66Wykd20N-qv6-181" target="vmTITbc66Wykd20N-qv6-175" edge="1">
          <mxGeometry relative="1" as="geometry">
            <Array as="points">
              <mxPoint x="754" y="1465" />
            </Array>
          </mxGeometry>
        </mxCell>
        <mxCell id="vmTITbc66Wykd20N-qv6-214" value="Send a push notification" style="verticalAlign=bottom;edgeStyle=elbowEdgeStyle;elbow=vertical;curved=0;rounded=0;dashed=1;dashPattern=2 3;endArrow=block;" parent="1" source="vmTITbc66Wykd20N-qv6-175" target="vmTITbc66Wykd20N-qv6-165" edge="1">
          <mxGeometry relative="1" as="geometry">
            <Array as="points">
              <mxPoint x="364" y="1517" />
            </Array>
          </mxGeometry>
        </mxCell>
        <mxCell id="vmTITbc66Wykd20N-qv6-215" value="Open the notification" style="verticalAlign=bottom;edgeStyle=elbowEdgeStyle;elbow=vertical;curved=0;rounded=0;endArrow=block;" parent="1" source="vmTITbc66Wykd20N-qv6-165" target="vmTITbc66Wykd20N-qv6-176" edge="1">
          <mxGeometry relative="1" as="geometry">
            <Array as="points">
              <mxPoint x="361" y="1569" />
            </Array>
          </mxGeometry>
        </mxCell>
        <mxCell id="vmTITbc66Wykd20N-qv6-216" value="Show the message" style="verticalAlign=bottom;edgeStyle=elbowEdgeStyle;elbow=vertical;curved=0;rounded=0;dashed=1;dashPattern=2 3;endArrow=block;" parent="1" source="vmTITbc66Wykd20N-qv6-176" target="vmTITbc66Wykd20N-qv6-165" edge="1">
          <mxGeometry relative="1" as="geometry">
            <Array as="points">
              <mxPoint x="364" y="1621" />
            </Array>
          </mxGeometry>
        </mxCell>
      </root>
    </mxGraphModel>
  </diagram>
</mxfile>
